<svg xmlns="http://www.w3.org/2000/svg" viewBox="0 0 512 512">
  <defs>
    <linearGradient id="bg" x1="0" y1="0" x2="1" y2="1">
      <stop offset="0" stop-color="#5b7cfa"/>
      <stop offset="1" stop-color="#7a94ff"/>
    </linearGradient>
  </defs>
  <rect width="512" height="512" rx="112" fill="#0b1020"/>
  <circle cx="256" cy="256" r="150" fill="url(#bg)"/>
  <path fill="#ffffff" d="M336 300c-10-3-22-8-33-14-6-4-14-2-18 4l-12 15c-24-13-44-33-57-57l15-12c6-4 8-12 4-18-6-11-11-23-14-33-2-8-10-12-18-10l-30 8c-8 2-13 10-12 18 9 78 71 140 149 149 8 1 16-4 18-12l8-30c2-8-2-16-10-18z"/>
</svg>
